<svg version="1.0" xmlns="http://www.w3.org/2000/svg" width="980pt" height="980pt" viewBox="0 0 980 980"><g transform="translate(0.000000,980.000000) scale(0.100000,-0.100000)" fill="#000" stroke="none"><path d="M0 9020v-780l208 2 207 3 3 193 2 192h190 190v-4e2-4e2h615 615v210 210h-4e2-4e2v4e2 4e2H825 420v165 165h565 565v-390-390h405 405l-2-557-3-558-783-3-782-2 2-208 3-207 598-3 598-2 22 23c12 13 71 78 130 144 151 170 371 365 574 510l63 45v619 619h-405-405v180 180h1755 1755v-385-385h215 215v385 385h1735 1735v-165-165H9e3h-380v-210-210h380 380v-170-170H8205 7030v-332-333l86-70c48-38 142-125 210-191l124-121v313 314h365 365v-195-195H8e3h-180l2-207 3-208h580 580l3 207 2 208-192 2-193 3v190 190l388 3 387 2v-595-595h-754-754l62-108c33-60 83-154 111-210l49-102h643 643V4150 2040h-390-390v-615-615h210 210l2 402 3 403 178 3 177 2v-195-195h210 210v4285 4285H49e2.0v-780z"/><path d="M3140 8525c0-289 2-525 5-525s45 20 93 44c48 23 140 65 205 91l117 48v223 224h180 180v-169-168l58 13c56 14 334 64 353 64 5 0 9 135 9 340v340h-6e2-6e2v-525z"/><path d="M6270 8650v-4e2l-207-2-208-3 1e2-34c214-73 472-190 650-296 42-25 79-45 81-45s4 171 4 380v380h760 760v210 210h-970-970v-4e2z"/><path d="M4690 8710v-310h118c66 0 160-3 210-6l92-7v317 316h-210-210v-310z"/><path d="M4316 7418c31-205 38-409 25-701-7-155-15-292-18-304l-5-23h-732c-658 0-859 5-1093 26l-73 6v-257-257l28 7c15 4 432 10 928 12l901 4-9-58c-153-959-471-1654-1013-2212-257-265-531-476-837-643l-117-64 240-178 240-177 122 82c794 532 1280 1142 1598 2006 115 311 234 8e2 280 1152l13 91h920 921l-7-282c-19-840-123-1715-249-21e2-67-205-140-315-240-358-79-33-202-42-458-30-235 11-520 33-655 51-43 6-80 9-81 7-5-5 59-486 66-492 13-13 612-39 919-40 317-1 339 0 413 21 3e2 85 441 267 552 713 127 510 212 1278 265 24e2 6 129 18 278 25 330s12 96 10 98-84 41-183 87c-178 81-180 82-228 72-30-6-416-11-991-14l-943-4v23c0 13 5 86 10 163s14 248 20 380c10 229 23 410 36 503l6 42h-309-309l12-82z"/><path d="M0 3545V0h45e2H9e3l-2 208-3 207-772 3-773 2v405 405l-377 2-378 3-3 248c-1 136-4 247-6 247-3 0-39-20-81-45-43-25-135-75-206-111l-129-64v-140-140h-507c-280-1-542-5-583-10s-164-13-272-16l-198-7v-194-193h1160 1160V615 420H5295 3560v499 498l-117 48c-65 26-157 68-205 91-48 24-90 44-93 44s-5-265-5-590V420H1780 420v1360 1360h385 385v210 210H805 420v185 185h440c242 0 440 3 440 8 0 4-11 61-24 127-14 66-30 157-36 203l-12 82H824 420v575 575h180 180v-395-395h210 210l-2 603-3 602-387 3-388 2v585 585H210 0V3545z"/><path d="M770 6470v-210h368 368l49 102c28 56 78 150 111 210l62 108h-479-479v-210z"/><path d="M8256 5808c19-62 44-157 55-210l22-98h349 348v210 210h-404-403l33-112z"/><path d="M8389 5146c-2-3-1-44 3-93 3-48 7-141 7-205l1-118h1e2 1e2v-585-585h-209-209l-33-82c-18-46-59-139-91-207s-58-126-58-128c0-1 135-3 3e2-3h3e2v-165-165h-385-385v-385-385h-190-190v159 160l-124-122c-68-67-162-153-210-192l-86-70v-177-178l398-2 397-3 3-393 2-392 208 2 207 3 3 778 2 777h385 385v1380 1380h-313c-173 0-316-2-318-4z"/><path d="M1570 3008v-198h-395-395v-1e3-1e3h995 995v210 210h-785-785v580 580h461 460l-23 28c-231 282-354 459-478 694l-50 93v-197z"/><path d="M1580 1830v-210h762 762l-130 78c-165 1e2-254 160-384 261l-104 81h-453-453v-210z"/><path d="M3920 1068V830l208 2 207 3 3 198c1 121-1 197-7 197-19 0-297 50-353 64l-58 13v-239z"/></g></svg>