<?xml version="1.0" standalone="no"?>
<!DOCTYPE svg PUBLIC "-//W3C//DTD SVG 20010904//EN"
 "http://www.w3.org/TR/2001/REC-SVG-20010904/DTD/svg10.dtd">
<svg version="1.0" xmlns="http://www.w3.org/2000/svg"
 width="980.000000pt" height="980.000000pt" viewBox="0 0 980.000000 980.000000"
 preserveAspectRatio="xMidYMid meet">
<metadata>
Created by potrace 1.11, written by Peter Selinger 2001-2013
</metadata>
<g transform="translate(0.000000,980.000000) scale(0.100000,-0.100000)"
fill="#000000" stroke="none">
<path d="M0 9020 l0 -780 208 2 207 3 3 193 2 192 190 0 190 0 0 -400 0 -400
615 0 615 0 0 210 0 210 -400 0 -400 0 0 400 0 400 -405 0 -405 0 0 165 0 165
565 0 565 0 0 -390 0 -390 405 0 405 0 -2 -557 -3 -558 -783 -3 -782 -2 2
-208 3 -207 598 -3 598 -2 22 23 c12 13 71 78 130 144 151 170 371 365 574
510 l63 45 0 619 0 619 -405 0 -405 0 0 180 0 180 1755 0 1755 0 0 -385 0
-385 215 0 215 0 0 385 0 385 1735 0 1735 0 0 -165 0 -165 -380 0 -380 0 0
-210 0 -210 380 0 380 0 0 -170 0 -170 -1175 0 -1175 0 0 -332 0 -333 86 -70
c48 -38 142 -125 210 -191 l124 -121 0 313 0 314 365 0 365 0 0 -195 0 -195
-180 0 -180 0 2 -207 3 -208 580 0 580 0 3 207 2 208 -192 2 -193 3 0 190 0
190 388 3 387 2 0 -595 0 -595 -754 0 -754 0 62 -108 c33 -60 83 -154 111
-210 l49 -102 643 0 643 0 0 -2110 0 -2110 -390 0 -390 0 0 -615 0 -615 210 0
210 0 2 402 3 403 178 3 177 2 0 -195 0 -195 210 0 210 0 0 4285 0 4285 -4900
0 -4900 0 0 -780z"/>
<path d="M3140 8525 c0 -289 2 -525 5 -525 3 0 45 20 93 44 48 23 140 65 205
91 l117 48 0 223 0 224 180 0 180 0 0 -169 0 -168 58 13 c56 14 334 64 353 64
5 0 9 135 9 340 l0 340 -600 0 -600 0 0 -525z"/>
<path d="M6270 8650 l0 -400 -207 -2 -208 -3 100 -34 c214 -73 472 -190 650
-296 42 -25 79 -45 81 -45 2 0 4 171 4 380 l0 380 760 0 760 0 0 210 0 210
-970 0 -970 0 0 -400z"/>
<path d="M4690 8710 l0 -310 118 0 c66 0 160 -3 210 -6 l92 -7 0 317 0 316
-210 0 -210 0 0 -310z"/>
<path d="M4316 7418 c31 -205 38 -409 25 -701 -7 -155 -15 -292 -18 -304 l-5
-23 -732 0 c-658 0 -859 5 -1093 26 l-73 6 0 -257 0 -257 28 7 c15 4 432 10
928 12 l901 4 -9 -58 c-153 -959 -471 -1654 -1013 -2212 -257 -265 -531 -476
-837 -643 l-117 -64 240 -178 240 -177 122 82 c794 532 1280 1142 1598 2006
115 311 234 800 280 1152 l13 91 920 0 921 0 -7 -282 c-19 -840 -123 -1715
-249 -2100 -67 -205 -140 -315 -240 -358 -79 -33 -202 -42 -458 -30 -235 11
-520 33 -655 51 -43 6 -80 9 -81 7 -5 -5 59 -486 66 -492 13 -13 612 -39 919
-40 317 -1 339 0 413 21 300 85 441 267 552 713 127 510 212 1278 265 2400 6
129 18 278 25 330 7 52 12 96 10 98 -2 2 -84 41 -183 87 -178 81 -180 82 -228
72 -30 -6 -416 -11 -991 -14 l-943 -4 0 23 c0 13 5 86 10 163 5 77 14 248 20
380 10 229 23 410 36 503 l6 42 -309 0 -309 0 12 -82z"/>
<path d="M0 3545 l0 -3545 4500 0 4500 0 -2 208 -3 207 -772 3 -773 2 0 405 0
405 -377 2 -378 3 -3 248 c-1 136 -4 247 -6 247 -3 0 -39 -20 -81 -45 -43 -25
-135 -75 -206 -111 l-129 -64 0 -140 0 -140 -507 0 c-280 -1 -542 -5 -583 -10
-41 -5 -164 -13 -272 -16 l-198 -7 0 -194 0 -193 1160 0 1160 0 0 -195 0 -195
-1735 0 -1735 0 0 499 0 498 -117 48 c-65 26 -157 68 -205 91 -48 24 -90 44
-93 44 -3 0 -5 -265 -5 -590 l0 -590 -1360 0 -1360 0 0 1360 0 1360 385 0 385
0 0 210 0 210 -385 0 -385 0 0 185 0 185 440 0 c242 0 440 3 440 8 0 4 -11 61
-24 127 -14 66 -30 157 -36 203 l-12 82 -404 0 -404 0 0 575 0 575 180 0 180
0 0 -395 0 -395 210 0 210 0 -2 603 -3 602 -387 3 -388 2 0 585 0 585 -210 0
-210 0 0 -3545z"/>
<path d="M770 6470 l0 -210 368 0 368 0 49 102 c28 56 78 150 111 210 l62 108
-479 0 -479 0 0 -210z"/>
<path d="M8256 5808 c19 -62 44 -157 55 -210 l22 -98 349 0 348 0 0 210 0 210
-404 0 -403 0 33 -112z"/>
<path d="M8389 5146 c-2 -3 -1 -44 3 -93 3 -48 7 -141 7 -205 l1 -118 100 0
100 0 0 -585 0 -585 -209 0 -209 0 -33 -82 c-18 -46 -59 -139 -91 -207 -32
-68 -58 -126 -58 -128 0 -1 135 -3 300 -3 l300 0 0 -165 0 -165 -385 0 -385 0
0 -385 0 -385 -190 0 -190 0 0 159 0 160 -124 -122 c-68 -67 -162 -153 -210
-192 l-86 -70 0 -177 0 -178 398 -2 397 -3 3 -393 2 -392 208 2 207 3 3 778 2
777 385 0 385 0 0 1380 0 1380 -313 0 c-173 0 -316 -2 -318 -4z"/>
<path d="M1570 3008 l0 -198 -395 0 -395 0 0 -1000 0 -1000 995 0 995 0 0 210
0 210 -785 0 -785 0 0 580 0 580 461 0 460 0 -23 28 c-231 282 -354 459 -478
694 l-50 93 0 -197z"/>
<path d="M1580 1830 l0 -210 762 0 762 0 -130 78 c-165 100 -254 160 -384 261
l-104 81 -453 0 -453 0 0 -210z"/>
<path d="M3920 1068 l0 -238 208 2 207 3 3 198 c1 121 -1 197 -7 197 -19 0
-297 50 -353 64 l-58 13 0 -239z"/>
</g>
</svg>
